STARTFONT 2.1
COMMENT
COMMENT Converted from OpenType font "london-buses-ibus.ttf" by "otf2bdf 3.0".
COMMENT
FONT -FreeType-London Buses iBus-Medium-R-Normal--48-70-500-500-P-193-ISO10646-1
SIZE 7 500 500
FONTBOUNDINGBOX 30 44 0 -10
STARTPROPERTIES 19
FOUNDRY "FreeType"
FAMILY_NAME "London Buses iBus"
WEIGHT_NAME "Medium"
SLANT "R"
SETWIDTH_NAME "Normal"
ADD_STYLE_NAME ""
PIXEL_SIZE 48
POINT_SIZE 70
RESOLUTION_X 500
RESOLUTION_Y 500
SPACING "P"
AVERAGE_WIDTH 193
CHARSET_REGISTRY "ISO10646"
CHARSET_ENCODING "1"
FONT_ASCENT 34
FONT_DESCENT 14
COPYRIGHT "Copyright Epalvosh 2023"
_OTF_FONTFILE "london-buses-ibus.ttf"
_OTF_PSNAME "LondonBusesiBus"
ENDPROPERTIES
CHARS 78
STARTCHAR 0020
ENCODING 32
SWIDTH 205 0
DWIDTH 10 0
BBX 0 0 0 0
BITMAP
ENDCHAR
STARTCHAR 0021
ENCODING 33
SWIDTH 205 0
DWIDTH 10 0
BBX 5 34 0 0
BITMAP
70
F8
F8
F8
70
70
F8
F8
F8
70
70
F8
F8
F8
70
70
F8
F8
F8
70
70
F8
F8
F8
70
00
00
00
00
70
F8
F8
F8
70
ENDCHAR
STARTCHAR 0026
ENCODING 38
SWIDTH 720 0
DWIDTH 35 0
BBX 30 34 0 0
BITMAP
001C0000
003E0000
003E0000
003E0000
001C0000
0380C000
07C1E000
07C1E000
07C1E000
0380C000
001C0078
003E00FC
003E00FC
003E00FC
001C0030
039C0078
07FE00FC
07FE00FC
07FE00FC
039C0030
7000C300
F801E780
F801E780
7001E700
7000C300
F801E780
F801E780
F801E780
7000C300
039C0030
07FE00FC
07FE00FC
07FE00FC
039C0078
ENDCHAR
STARTCHAR 0027
ENCODING 39
SWIDTH 308 0
DWIDTH 15 0
BBX 10 10 0 24
BITMAP
0380
07C0
07C0
07C0
0380
7000
F800
F800
F800
7000
ENDCHAR
STARTCHAR 0028
ENCODING 40
SWIDTH 308 0
DWIDTH 15 0
BBX 10 39 0 -5
BITMAP
0380
07C0
07C0
07C0
0380
7000
F800
F800
F800
7000
7000
F800
F800
F800
7000
7000
F800
F800
F800
7000
7000
F800
F800
7000
7000
F800
F800
F800
7000
7000
F800
F800
F800
7000
0380
07C0
07C0
07C0
0380
ENDCHAR
STARTCHAR 0029
ENCODING 41
SWIDTH 308 0
DWIDTH 15 0
BBX 10 39 0 -5
BITMAP
7000
F800
F800
F800
7000
0380
07C0
07C0
07C0
0380
0380
07C0
07C0
07C0
0380
0380
07C0
07C0
07C0
0380
0380
07C0
07C0
0380
0380
07C0
07C0
07C0
0380
0380
07C0
07C0
07C0
0380
7000
F800
F800
F800
7000
ENDCHAR
STARTCHAR 002A
ENCODING 42
SWIDTH 596 0
DWIDTH 29 0
BBX 24 29 0 0
BITMAP
001C00
003E00
003E00
003E00
001C00
701C0E
F83E1F
F83E1F
F83E1F
701C0E
039CC0
07FFE0
07FFE0
07FFE0
039CC0
039CC0
07FFE0
07FFE0
039DE0
701C0E
F83E1F
F83E1F
F83E1F
701C0E
001C00
003E00
003E00
003E00
001C00
ENDCHAR
STARTCHAR 002C
ENCODING 44
SWIDTH 308 0
DWIDTH 15 0
BBX 10 15 0 -10
BITMAP
0380
07C0
07C0
07C0
0380
0380
07C0
07C0
07C0
0380
7000
F800
F800
F800
7000
ENDCHAR
STARTCHAR 002D
ENCODING 45
SWIDTH 411 0
DWIDTH 20 0
BBX 15 5 0 10
BITMAP
739C
FFFE
FFFE
FFFE
739C
ENDCHAR
STARTCHAR 002E
ENCODING 46
SWIDTH 205 0
DWIDTH 10 0
BBX 5 5 0 0
BITMAP
70
F8
F8
F8
70
ENDCHAR
STARTCHAR 002F
ENCODING 47
SWIDTH 493 0
DWIDTH 24 0
BBX 19 39 0 -5
BITMAP
0000C0
0001E0
0001E0
0001E0
0000C0
0000C0
0001E0
0001E0
0001E0
0000C0
001C00
003E00
003E00
003E00
001C00
001C00
003E00
003E00
003E00
001C00
038000
07C000
07C000
038000
038000
07C000
07C000
07C000
038000
700000
F80000
F80000
F80000
700000
700000
F80000
F80000
F80000
700000
ENDCHAR
STARTCHAR 0030
ENCODING 48
SWIDTH 493 0
DWIDTH 24 0
BBX 19 34 0 0
BITMAP
039C00
07FE00
07FE00
07FE00
039C00
7000C0
F801E0
F801E0
F801E0
7000C0
7000C0
F801E0
F801E0
F801E0
7000C0
7000C0
F801E0
F801E0
F801E0
7000C0
7000C0
F801E0
F801E0
7001E0
7000C0
F801E0
F801E0
F801E0
7000C0
039C00
07FE00
07FE00
07FE00
039C00
ENDCHAR
STARTCHAR 0031
ENCODING 49
SWIDTH 411 0
DWIDTH 20 0
BBX 15 34 0 0
BITMAP
0380
07C0
07C0
07C0
0380
7380
FFC0
FFC0
FFC0
7380
0380
07C0
07C0
07C0
0380
0380
07C0
07C0
07C0
0380
0380
07C0
07C0
0380
0380
07C0
07C0
07C0
0380
739C
FFFE
FFFE
FFFE
739C
ENDCHAR
STARTCHAR 0032
ENCODING 50
SWIDTH 493 0
DWIDTH 24 0
BBX 19 34 0 0
BITMAP
039C00
07FE00
07FE00
07FE00
039C00
7000C0
F801E0
F801E0
F801E0
7000C0
0000C0
0001E0
0001E0
0001E0
0000C0
001C00
003E00
003E00
003E00
001C00
038000
07C000
07C000
038000
700000
F80000
F80000
F80000
700000
739CC0
FFFFE0
FFFFE0
FFFFE0
739CC0
ENDCHAR
STARTCHAR 0033
ENCODING 51
SWIDTH 493 0
DWIDTH 24 0
BBX 19 34 0 0
BITMAP
039C00
07FE00
07FE00
07FE00
039C00
7000C0
F801E0
F801E0
F801E0
7000C0
0000C0
0001E0
0001E0
0001E0
0000C0
039C00
07FE00
07FE00
07FE00
039C00
0000C0
0001E0
0001E0
0001E0
7000C0
F801E0
F801E0
F801E0
7000C0
039C00
07FE00
07FE00
07FE00
039C00
ENDCHAR
STARTCHAR 0034
ENCODING 52
SWIDTH 596 0
DWIDTH 29 0
BBX 24 34 0 0
BITMAP
0000C0
0001E0
0001E0
0001E0
0000C0
001CC0
003FE0
003FE0
003FE0
001CC0
0380C0
07C1E0
07C1E0
07C1E0
0380C0
7000C0
F801E0
F801E0
F801E0
7000C0
739CCE
FFFFFF
FFFFFF
739DEE
0000C0
0001E0
0001E0
0001E0
0000C0
0000C0
0001E0
0001E0
0001E0
0000C0
ENDCHAR
STARTCHAR 0035
ENCODING 53
SWIDTH 493 0
DWIDTH 24 0
BBX 19 34 0 0
BITMAP
739CC0
FFFFE0
FFFFE0
FFFFE0
739CC0
700000
F80000
F80000
F80000
700000
739C00
FFFE00
FFFE00
FFFE00
739C00
0000C0
0001E0
0001E0
0001E0
0000C0
0000C0
0001E0
0001E0
0001E0
7000C0
F801E0
F801E0
F801E0
7000C0
039C00
07FE00
07FE00
07FE00
039C00
ENDCHAR
STARTCHAR 0036
ENCODING 54
SWIDTH 493 0
DWIDTH 24 0
BBX 19 34 0 0
BITMAP
039C00
07FE00
07FE00
07FE00
039C00
7000C0
F801E0
F801E0
F801E0
7000C0
700000
F80000
F80000
F80000
700000
739C00
FFFE00
FFFE00
FFFE00
739C00
7000C0
F801E0
F801E0
7001E0
7000C0
F801E0
F801E0
F801E0
7000C0
039C00
07FE00
07FE00
07FE00
039C00
ENDCHAR
STARTCHAR 0037
ENCODING 55
SWIDTH 493 0
DWIDTH 24 0
BBX 19 34 0 0
BITMAP
739CC0
FFFFE0
FFFFE0
FFFFE0
739CC0
0000C0
0001E0
0001E0
0001E0
0000C0
001C00
003E00
003E00
003E00
001C00
001C00
003E00
003E00
003E00
001C00
038000
07C000
07C000
038000
038000
07C000
07C000
07C000
038000
038000
07C000
07C000
07C000
038000
ENDCHAR
STARTCHAR 0038
ENCODING 56
SWIDTH 493 0
DWIDTH 24 0
BBX 19 34 0 0
BITMAP
039C00
07FE00
07FE00
07FE00
039C00
7000C0
F801E0
F801E0
F801E0
7000C0
7000C0
F801E0
F801E0
F801E0
7000C0
039C00
07FE00
07FE00
07FE00
039C00
7000C0
F801E0
F801E0
7001E0
7000C0
F801E0
F801E0
F801E0
7000C0
039C00
07FE00
07FE00
07FE00
039C00
ENDCHAR
STARTCHAR 0039
ENCODING 57
SWIDTH 493 0
DWIDTH 24 0
BBX 19 34 0 0
BITMAP
039C00
07FE00
07FE00
07FE00
039C00
7000C0
F801E0
F801E0
F801E0
7000C0
7000C0
F801E0
F801E0
F801E0
7000C0
039CC0
07FFE0
07FFE0
07FFE0
039CC0
0000C0
0001E0
0001E0
0001E0
7000C0
F801E0
F801E0
F801E0
7000C0
039C00
07FE00
07FE00
07FE00
039C00
ENDCHAR
STARTCHAR 003A
ENCODING 58
SWIDTH 205 0
DWIDTH 10 0
BBX 5 14 0 5
BITMAP
70
F8
F8
F8
70
00
00
00
00
70
F8
F8
F8
70
ENDCHAR
STARTCHAR 003C
ENCODING 60
SWIDTH 493 0
DWIDTH 24 0
BBX 19 34 0 -5
BITMAP
0000C0
0001E0
0001E0
0001E0
0000C0
001C00
003E00
003E00
003E00
001C00
038000
07C000
07C000
07C000
038000
700000
F80000
F80000
700000
038000
07C000
07C000
07C000
038000
001C00
003E00
003E00
003E00
001C00
0000C0
0001E0
0001E0
0001E0
0000C0
ENDCHAR
STARTCHAR 003E
ENCODING 62
SWIDTH 493 0
DWIDTH 24 0
BBX 19 34 0 -5
BITMAP
700000
F80000
F80000
F80000
700000
038000
07C000
07C000
07C000
038000
001C00
003E00
003E00
003E00
001C00
0000C0
0001E0
0001E0
0001E0
001C00
003E00
003E00
003E00
001C00
038000
07C000
07C000
07C000
038000
700000
F80000
F80000
F80000
700000
ENDCHAR
STARTCHAR 003F
ENCODING 63
SWIDTH 493 0
DWIDTH 24 0
BBX 19 34 0 0
BITMAP
039C00
07FE00
07FE00
07FE00
039C00
7000C0
F801E0
F801E0
F801E0
7000C0
0000C0
0001E0
0001E0
0001E0
0000C0
001C00
003E00
003E00
003E00
001C00
038000
07C000
07C000
07C000
038000
000000
000000
000000
000000
038000
07C000
07C000
07C000
038000
ENDCHAR
STARTCHAR 0041
ENCODING 65
SWIDTH 596 0
DWIDTH 29 0
BBX 24 34 0 0
BITMAP
001C00
003E00
003E00
003E00
001C00
0380C0
07C1E0
07C1E0
07C1E0
0380C0
70000E
F8001F
F8001F
F8001F
70000E
70000E
F8001F
F8001F
F8001F
70000E
739CCE
FFFFFF
FFFFFF
739DEE
70000E
F8001F
F8001F
F8001F
70000E
70000E
F8001F
F8001F
F8001F
70000E
ENDCHAR
STARTCHAR 0042
ENCODING 66
SWIDTH 596 0
DWIDTH 29 0
BBX 24 34 0 0
BITMAP
739CC0
FFFFE0
FFFFE0
FFFFE0
739CC0
70000E
F8001F
F8001F
F8001F
70000E
70000E
F8001F
F8001F
F8001F
70000E
739CC0
FFFFE0
FFFFE0
FFFFE0
739CC0
70000E
F8001F
F8001F
70000E
70000E
F8001F
F8001F
F8001F
70000E
739CC0
FFFFE0
FFFFE0
FFFFE0
739CC0
ENDCHAR
STARTCHAR 0043
ENCODING 67
SWIDTH 596 0
DWIDTH 29 0
BBX 24 34 0 0
BITMAP
001CC0
003FE0
003FE0
003FE0
001CC0
03800E
07C01F
07C01F
07C01F
03800E
700000
F80000
F80000
F80000
700000
700000
F80000
F80000
F80000
700000
700000
F80000
F80000
700000
03800E
07C01F
07C01F
07C01F
03800E
001CC0
003FE0
003FE0
003FE0
001CC0
ENDCHAR
STARTCHAR 0044
ENCODING 68
SWIDTH 596 0
DWIDTH 29 0
BBX 24 34 0 0
BITMAP
739C00
FFFE00
FFFE00
FFFE00
739C00
7000C0
F801E0
F801E0
F801E0
7000C0
70000E
F8001F
F8001F
F8001F
70000E
70000E
F8001F
F8001F
F8001F
70000E
70000E
F8001F
F8001F
70000E
7000C0
F801E0
F801E0
F801E0
7000C0
739C00
FFFE00
FFFE00
FFFE00
739C00
ENDCHAR
STARTCHAR 0045
ENCODING 69
SWIDTH 493 0
DWIDTH 24 0
BBX 19 34 0 0
BITMAP
739CC0
FFFFE0
FFFFE0
FFFFE0
739CC0
700000
F80000
F80000
F80000
700000
700000
F80000
F80000
F80000
700000
739C00
FFFE00
FFFE00
FFFE00
739C00
700000
F80000
F80000
700000
700000
F80000
F80000
F80000
700000
739CC0
FFFFE0
FFFFE0
FFFFE0
739CC0
ENDCHAR
STARTCHAR 0046
ENCODING 70
SWIDTH 596 0
DWIDTH 29 0
BBX 24 34 0 0
BITMAP
739CCE
FFFFFF
FFFFFF
FFFFFF
739CCE
700000
F80000
F80000
F80000
700000
700000
F80000
F80000
F80000
700000
739CC0
FFFFE0
FFFFE0
FFFFE0
739CC0
700000
F80000
F80000
700000
700000
F80000
F80000
F80000
700000
700000
F80000
F80000
F80000
700000
ENDCHAR
STARTCHAR 0047
ENCODING 71
SWIDTH 596 0
DWIDTH 29 0
BBX 24 34 0 0
BITMAP
039CC0
07FFE0
07FFE0
07FFE0
039CC0
70000E
F8001F
F8001F
F8001F
70000E
700000
F80000
F80000
F80000
700000
7000CE
F801FF
F801FF
F801FF
7000CE
70000E
F8001F
F8001F
70000E
70000E
F8001F
F8001F
F8001F
70000E
039CCE
07FFFF
07FFFF
07FFFF
039CCE
ENDCHAR
STARTCHAR 0048
ENCODING 72
SWIDTH 596 0
DWIDTH 29 0
BBX 24 34 0 0
BITMAP
70000E
F8001F
F8001F
F8001F
70000E
70000E
F8001F
F8001F
F8001F
70000E
70000E
F8001F
F8001F
F8001F
70000E
739CCE
FFFFFF
FFFFFF
FFFFFF
739CCE
70000E
F8001F
F8001F
70000E
70000E
F8001F
F8001F
F8001F
70000E
70000E
F8001F
F8001F
F8001F
70000E
ENDCHAR
STARTCHAR 0049
ENCODING 73
SWIDTH 205 0
DWIDTH 10 0
BBX 5 34 0 0
BITMAP
70
F8
F8
F8
70
70
F8
F8
F8
70
70
F8
F8
F8
70
70
F8
F8
F8
70
70
F8
F8
70
70
F8
F8
F8
70
70
F8
F8
F8
70
ENDCHAR
STARTCHAR 004A
ENCODING 74
SWIDTH 411 0
DWIDTH 20 0
BBX 15 34 0 0
BITMAP
001C
003E
003E
003E
001C
001C
003E
003E
003E
001C
001C
003E
003E
003E
001C
001C
003E
003E
003E
001C
001C
003E
003E
001C
001C
003E
003E
003E
001C
7380
FFC0
FFC0
FFC0
7380
ENDCHAR
STARTCHAR 004B
ENCODING 75
SWIDTH 596 0
DWIDTH 29 0
BBX 24 34 0 0
BITMAP
70000E
F8001F
F8001F
F8001F
70000E
7000C0
F801E0
F801E0
F801E0
7000C0
701C00
F83E00
F83E00
F83E00
701C00
738000
FFC000
FFC000
FFC000
738000
701C00
F83E00
F83E00
701C00
7000C0
F801E0
F801E0
F801E0
7000C0
70000E
F8001F
F8001F
F8001F
70000E
ENDCHAR
STARTCHAR 004C
ENCODING 76
SWIDTH 493 0
DWIDTH 24 0
BBX 19 34 0 0
BITMAP
700000
F80000
F80000
F80000
700000
700000
F80000
F80000
F80000
700000
700000
F80000
F80000
F80000
700000
700000
F80000
F80000
F80000
700000
700000
F80000
F80000
700000
700000
F80000
F80000
F80000
700000
739CC0
FFFFE0
FFFFE0
FFFFE0
739CC0
ENDCHAR
STARTCHAR 004D
ENCODING 77
SWIDTH 596 0
DWIDTH 29 0
BBX 24 34 0 0
BITMAP
70000E
F8001F
F8001F
F8001F
70000E
7380CE
FFC1FF
FFC1FF
FFC1FF
7380CE
701C0E
F83E1F
F83E1F
F83E1F
701C0E
701C0E
F83E1F
F83E1F
F83E1F
701C0E
70000E
F8001F
F8001F
70000E
70000E
F8001F
F8001F
F8001F
70000E
70000E
F8001F
F8001F
F8001F
70000E
ENDCHAR
STARTCHAR 004E
ENCODING 78
SWIDTH 596 0
DWIDTH 29 0
BBX 24 34 0 0
BITMAP
70000E
F8001F
F8001F
F8001F
70000E
73800E
FFC01F
FFC01F
FFC01F
73800E
73800E
FFC01F
FFC01F
FFC01F
73800E
701C0E
F83E1F
F83E1F
F83E1F
701C0E
7000CE
F801FF
F801FF
7001EE
7000CE
F801FF
F801FF
F801FF
7000CE
70000E
F8001F
F8001F
F8001F
70000E
ENDCHAR
STARTCHAR 004F
ENCODING 79
SWIDTH 596 0
DWIDTH 29 0
BBX 24 34 0 0
BITMAP
039CC0
07FFE0
07FFE0
07FFE0
039CC0
70000E
F8001F
F8001F
F8001F
70000E
70000E
F8001F
F8001F
F8001F
70000E
70000E
F8001F
F8001F
F8001F
70000E
70000E
F8001F
F8001F
70000E
70000E
F8001F
F8001F
F8001F
70000E
039CC0
07FFE0
07FFE0
07FFE0
039CC0
ENDCHAR
STARTCHAR 0050
ENCODING 80
SWIDTH 596 0
DWIDTH 29 0
BBX 24 34 0 0
BITMAP
739CC0
FFFFE0
FFFFE0
FFFFE0
739CC0
70000E
F8001F
F8001F
F8001F
70000E
70000E
F8001F
F8001F
F8001F
70000E
739CC0
FFFFE0
FFFFE0
FFFFE0
739CC0
700000
F80000
F80000
700000
700000
F80000
F80000
F80000
700000
700000
F80000
F80000
F80000
700000
ENDCHAR
STARTCHAR 0051
ENCODING 81
SWIDTH 720 0
DWIDTH 35 0
BBX 30 39 0 -5
BITMAP
039CC000
07FFE000
07FFE000
07FFE000
039CC000
70000300
F8000780
F8000780
F8000780
70000300
70000300
F8000780
F8000780
F8000780
70000300
70000300
F8000780
F8000780
F8000780
70000300
70000300
F8000780
F8000780
70000700
7000C300
F801E780
F801E780
F801E780
7000C300
039CC300
07FFE780
07FFE780
07FFE780
039CC300
00000078
000000FC
000000FC
000000FC
00000030
ENDCHAR
STARTCHAR 0052
ENCODING 82
SWIDTH 596 0
DWIDTH 29 0
BBX 24 34 0 0
BITMAP
739CC0
FFFFE0
FFFFE0
FFFFE0
739CC0
70000E
F8001F
F8001F
F8001F
70000E
70000E
F8001F
F8001F
F8001F
70000E
739CC0
FFFFE0
FFFFE0
FFFFE0
739CC0
7000C0
F801E0
F801E0
7001E0
70000E
F8001F
F8001F
F8001F
70000E
70000E
F8001F
F8001F
F8001F
70000E
ENDCHAR
STARTCHAR 0053
ENCODING 83
SWIDTH 493 0
DWIDTH 24 0
BBX 19 34 0 0
BITMAP
039C00
07FE00
07FE00
07FE00
039C00
7000C0
F801E0
F801E0
F801E0
7000C0
700000
F80000
F80000
F80000
700000
039C00
07FE00
07FE00
07FE00
039C00
0000C0
0001E0
0001E0
0001E0
7000C0
F801E0
F801E0
F801E0
7000C0
039C00
07FE00
07FE00
07FE00
039C00
ENDCHAR
STARTCHAR 0054
ENCODING 84
SWIDTH 596 0
DWIDTH 29 0
BBX 24 34 0 0
BITMAP
739CCE
FFFFFF
FFFFFF
FFFFFF
739CCE
001C00
003E00
003E00
003E00
001C00
001C00
003E00
003E00
003E00
001C00
001C00
003E00
003E00
003E00
001C00
001C00
003E00
003E00
001C00
001C00
003E00
003E00
003E00
001C00
001C00
003E00
003E00
003E00
001C00
ENDCHAR
STARTCHAR 0055
ENCODING 85
SWIDTH 596 0
DWIDTH 29 0
BBX 24 34 0 0
BITMAP
70000E
F8001F
F8001F
F8001F
70000E
70000E
F8001F
F8001F
F8001F
70000E
70000E
F8001F
F8001F
F8001F
70000E
70000E
F8001F
F8001F
F8001F
70000E
70000E
F8001F
F8001F
70000E
70000E
F8001F
F8001F
F8001F
70000E
039CC0
07FFE0
07FFE0
07FFE0
039CC0
ENDCHAR
STARTCHAR 0056
ENCODING 86
SWIDTH 596 0
DWIDTH 29 0
BBX 24 34 0 0
BITMAP
70000E
F8001F
F8001F
F8001F
70000E
70000E
F8001F
F8001F
F8001F
70000E
70000E
F8001F
F8001F
F8001F
70000E
70000E
F8001F
F8001F
F8001F
70000E
70000E
F8001F
F8001F
70000E
0380C0
07C1E0
07C1E0
07C1E0
0380C0
001C00
003E00
003E00
003E00
001C00
ENDCHAR
STARTCHAR 0057
ENCODING 87
SWIDTH 596 0
DWIDTH 29 0
BBX 24 34 0 0
BITMAP
70000E
F8001F
F8001F
F8001F
70000E
70000E
F8001F
F8001F
F8001F
70000E
70000E
F8001F
F8001F
F8001F
70000E
701C0E
F83E1F
F83E1F
F83E1F
701C0E
701C0E
F83E1F
F83E1F
701C0E
7380CE
FFC1FF
FFC1FF
FFC1FF
7380CE
70000E
F8001F
F8001F
F8001F
70000E
ENDCHAR
STARTCHAR 0058
ENCODING 88
SWIDTH 596 0
DWIDTH 29 0
BBX 24 34 0 0
BITMAP
70000E
F8001F
F8001F
F8001F
70000E
70000E
F8001F
F8001F
F8001F
70000E
0380C0
07C1E0
07C1E0
07C1E0
0380C0
001C00
003E00
003E00
003E00
001C00
0380C0
07C1E0
07C1E0
0381E0
70000E
F8001F
F8001F
F8001F
70000E
70000E
F8001F
F8001F
F8001F
70000E
ENDCHAR
STARTCHAR 0059
ENCODING 89
SWIDTH 596 0
DWIDTH 29 0
BBX 24 34 0 0
BITMAP
70000E
F8001F
F8001F
F8001F
70000E
70000E
F8001F
F8001F
F8001F
70000E
0380C0
07C1E0
07C1E0
07C1E0
0380C0
001C00
003E00
003E00
003E00
001C00
001C00
003E00
003E00
001C00
001C00
003E00
003E00
003E00
001C00
001C00
003E00
003E00
003E00
001C00
ENDCHAR
STARTCHAR 005A
ENCODING 90
SWIDTH 596 0
DWIDTH 29 0
BBX 24 34 0 0
BITMAP
739CCE
FFFFFF
FFFFFF
FFFFFF
739CCE
00000E
00001F
00001F
00001F
00000E
0000C0
0001E0
0001E0
0001E0
0000C0
001C00
003E00
003E00
003E00
001C00
038000
07C000
07C000
038000
700000
F80000
F80000
F80000
700000
739CCE
FFFFFF
FFFFFF
FFFFFF
739CCE
ENDCHAR
STARTCHAR 005C
ENCODING 92
SWIDTH 493 0
DWIDTH 24 0
BBX 19 39 0 -5
BITMAP
700000
F80000
F80000
F80000
700000
700000
F80000
F80000
F80000
700000
038000
07C000
07C000
07C000
038000
038000
07C000
07C000
07C000
038000
001C00
003E00
003E00
001C00
001C00
003E00
003E00
003E00
001C00
0000C0
0001E0
0001E0
0001E0
0000C0
0000C0
0001E0
0001E0
0001E0
0000C0
ENDCHAR
STARTCHAR 0061
ENCODING 97
SWIDTH 493 0
DWIDTH 24 0
BBX 19 24 0 0
BITMAP
039C00
07FE00
07FE00
07FE00
039C00
0000C0
0001E0
0001E0
0001E0
0000C0
039CC0
07FFE0
07FFE0
039DE0
7000C0
F801E0
F801E0
F801E0
7000C0
039CC0
07FFE0
07FFE0
07FFE0
039CC0
ENDCHAR
STARTCHAR 0062
ENCODING 98
SWIDTH 493 0
DWIDTH 24 0
BBX 19 34 0 0
BITMAP
700000
F80000
F80000
F80000
700000
700000
F80000
F80000
F80000
700000
739C00
FFFE00
FFFE00
FFFE00
739C00
7000C0
F801E0
F801E0
F801E0
7000C0
7000C0
F801E0
F801E0
7001E0
7000C0
F801E0
F801E0
F801E0
7000C0
739C00
FFFE00
FFFE00
FFFE00
739C00
ENDCHAR
STARTCHAR 0063
ENCODING 99
SWIDTH 493 0
DWIDTH 24 0
BBX 19 24 0 0
BITMAP
039CC0
07FFE0
07FFE0
07FFE0
039CC0
700000
F80000
F80000
F80000
700000
700000
F80000
F80000
700000
700000
F80000
F80000
F80000
700000
039CC0
07FFE0
07FFE0
07FFE0
039CC0
ENDCHAR
STARTCHAR 0064
ENCODING 100
SWIDTH 493 0
DWIDTH 24 0
BBX 19 34 0 0
BITMAP
0000C0
0001E0
0001E0
0001E0
0000C0
0000C0
0001E0
0001E0
0001E0
0000C0
039CC0
07FFE0
07FFE0
07FFE0
039CC0
7000C0
F801E0
F801E0
F801E0
7000C0
7000C0
F801E0
F801E0
7001E0
7000C0
F801E0
F801E0
F801E0
7000C0
039CC0
07FFE0
07FFE0
07FFE0
039CC0
ENDCHAR
STARTCHAR 0065
ENCODING 101
SWIDTH 493 0
DWIDTH 24 0
BBX 19 24 0 0
BITMAP
039C00
07FE00
07FE00
07FE00
039C00
7000C0
F801E0
F801E0
F801E0
7000C0
739CC0
FFFFE0
FFFFE0
739DE0
700000
F80000
F80000
F80000
700000
039CC0
07FFE0
07FFE0
07FFE0
039CC0
ENDCHAR
STARTCHAR 0066
ENCODING 102
SWIDTH 411 0
DWIDTH 20 0
BBX 15 34 0 0
BITMAP
001C
003E
003E
003E
001C
0380
07C0
07C0
07C0
0380
739C
FFFE
FFFE
FFFE
739C
0380
07C0
07C0
07C0
0380
0380
07C0
07C0
0380
0380
07C0
07C0
07C0
0380
0380
07C0
07C0
07C0
0380
ENDCHAR
STARTCHAR 0067
ENCODING 103
SWIDTH 493 0
DWIDTH 24 0
BBX 19 34 0 -10
BITMAP
039CC0
07FFE0
07FFE0
07FFE0
039CC0
7000C0
F801E0
F801E0
F801E0
7000C0
7000C0
F801E0
F801E0
F801E0
7000C0
7000C0
F801E0
F801E0
7001C0
039CC0
07FFE0
07FFE0
07FFE0
039CC0
0000C0
0001E0
0001E0
0001E0
0000C0
039C00
07FE00
07FE00
07FE00
039C00
ENDCHAR
STARTCHAR 0068
ENCODING 104
SWIDTH 493 0
DWIDTH 24 0
BBX 19 34 0 0
BITMAP
700000
F80000
F80000
F80000
700000
700000
F80000
F80000
F80000
700000
739C00
FFFE00
FFFE00
FFFE00
739C00
7000C0
F801E0
F801E0
F801E0
7000C0
7000C0
F801E0
F801E0
7001E0
7000C0
F801E0
F801E0
F801E0
7000C0
7000C0
F801E0
F801E0
F801E0
7000C0
ENDCHAR
STARTCHAR 0069
ENCODING 105
SWIDTH 205 0
DWIDTH 10 0
BBX 5 34 0 0
BITMAP
70
F8
F8
F8
70
00
00
00
00
00
70
F8
F8
F8
70
70
F8
F8
F8
70
70
F8
F8
70
70
F8
F8
F8
70
70
F8
F8
F8
70
ENDCHAR
STARTCHAR 006A
ENCODING 106
SWIDTH 411 0
DWIDTH 20 0
BBX 15 44 0 -10
BITMAP
001C
003E
003E
003E
001C
0000
0000
0000
0000
0000
001C
003E
003E
003E
001C
001C
003E
003E
003E
001C
001C
003E
003E
003E
001C
001C
003E
003E
001C
001C
003E
003E
003E
001C
001C
003E
003E
003E
001C
7380
FFC0
FFC0
FFC0
7380
ENDCHAR
STARTCHAR 006B
ENCODING 107
SWIDTH 493 0
DWIDTH 24 0
BBX 19 34 0 0
BITMAP
700000
F80000
F80000
F80000
700000
700000
F80000
F80000
F80000
700000
7000C0
F801E0
F801E0
F801E0
7000C0
701C00
F83E00
F83E00
F83E00
701C00
738000
FFC000
FFC000
738000
701C00
F83E00
F83E00
F83E00
701C00
7000C0
F801E0
F801E0
F801E0
7000C0
ENDCHAR
STARTCHAR 006C
ENCODING 108
SWIDTH 308 0
DWIDTH 15 0
BBX 10 34 0 0
BITMAP
7000
F800
F800
F800
7000
7000
F800
F800
F800
7000
7000
F800
F800
F800
7000
7000
F800
F800
F800
7000
7000
F800
F800
7000
7000
F800
F800
F800
7000
0380
07C0
07C0
07C0
0380
ENDCHAR
STARTCHAR 006D
ENCODING 109
SWIDTH 596 0
DWIDTH 29 0
BBX 24 24 0 0
BITMAP
7380C0
FFC1E0
FFC1E0
FFC1E0
7380C0
701C0E
F83E1F
F83E1F
F83E1F
701C0E
701C0E
F83E1F
F83E1F
701C0E
701C0E
F83E1F
F83E1F
F83E1F
701C0E
701C0E
F83E1F
F83E1F
F83E1F
701C0E
ENDCHAR
STARTCHAR 006E
ENCODING 110
SWIDTH 493 0
DWIDTH 24 0
BBX 19 24 0 0
BITMAP
739C00
FFFE00
FFFE00
FFFE00
739C00
7000C0
F801E0
F801E0
F801E0
7000C0
7000C0
F801E0
F801E0
7001E0
7000C0
F801E0
F801E0
F801E0
7000C0
7000C0
F801E0
F801E0
F801E0
7000C0
ENDCHAR
STARTCHAR 006F
ENCODING 111
SWIDTH 493 0
DWIDTH 24 0
BBX 19 24 0 0
BITMAP
039C00
07FE00
07FE00
07FE00
039C00
7000C0
F801E0
F801E0
F801E0
7000C0
7000C0
F801E0
F801E0
7001E0
7000C0
F801E0
F801E0
F801E0
7000C0
039C00
07FE00
07FE00
07FE00
039C00
ENDCHAR
STARTCHAR 0070
ENCODING 112
SWIDTH 493 0
DWIDTH 24 0
BBX 19 34 0 -10
BITMAP
739C00
FFFE00
FFFE00
FFFE00
739C00
7000C0
F801E0
F801E0
F801E0
7000C0
7000C0
F801E0
F801E0
F801E0
7000C0
7000C0
F801E0
F801E0
7001C0
739C00
FFFE00
FFFE00
FFFE00
739C00
700000
F80000
F80000
F80000
700000
700000
F80000
F80000
F80000
700000
ENDCHAR
STARTCHAR 0071
ENCODING 113
SWIDTH 493 0
DWIDTH 24 0
BBX 19 34 0 -10
BITMAP
039CC0
07FFE0
07FFE0
07FFE0
039CC0
7000C0
F801E0
F801E0
F801E0
7000C0
7000C0
F801E0
F801E0
F801E0
7000C0
7000C0
F801E0
F801E0
7001C0
039CC0
07FFE0
07FFE0
07FFE0
039CC0
0000C0
0001E0
0001E0
0001E0
0000C0
0000C0
0001E0
0001E0
0001E0
0000C0
ENDCHAR
STARTCHAR 0072
ENCODING 114
SWIDTH 411 0
DWIDTH 20 0
BBX 15 24 0 0
BITMAP
701C
F83E
F83E
F83E
701C
7380
FFC0
FFC0
FFC0
7380
7000
F800
F800
7000
7000
F800
F800
F800
7000
7000
F800
F800
F800
7000
ENDCHAR
STARTCHAR 0073
ENCODING 115
SWIDTH 493 0
DWIDTH 24 0
BBX 19 24 0 0
BITMAP
039CC0
07FFE0
07FFE0
07FFE0
039CC0
700000
F80000
F80000
F80000
700000
039C00
07FE00
07FE00
039C00
0000C0
0001E0
0001E0
0001E0
0000C0
739C00
FFFE00
FFFE00
FFFE00
739C00
ENDCHAR
STARTCHAR 0074
ENCODING 116
SWIDTH 411 0
DWIDTH 20 0
BBX 15 34 0 0
BITMAP
0380
07C0
07C0
07C0
0380
0380
07C0
07C0
07C0
0380
739C
FFFE
FFFE
FFFE
739C
0380
07C0
07C0
07C0
0380
0380
07C0
07C0
0380
0380
07C0
07C0
07C0
0380
001C
003E
003E
003E
001C
ENDCHAR
STARTCHAR 0075
ENCODING 117
SWIDTH 493 0
DWIDTH 24 0
BBX 19 24 0 0
BITMAP
7000C0
F801E0
F801E0
F801E0
7000C0
7000C0
F801E0
F801E0
F801E0
7000C0
7000C0
F801E0
F801E0
7001E0
7000C0
F801E0
F801E0
F801E0
7000C0
039CC0
07FFE0
07FFE0
07FFE0
039CC0
ENDCHAR
STARTCHAR 0076
ENCODING 118
SWIDTH 596 0
DWIDTH 29 0
BBX 24 24 0 0
BITMAP
70000E
F8001F
F8001F
F8001F
70000E
70000E
F8001F
F8001F
F8001F
70000E
70000E
F8001F
F8001F
70000E
0380C0
07C1E0
07C1E0
07C1E0
0380C0
001C00
003E00
003E00
003E00
001C00
ENDCHAR
STARTCHAR 0077
ENCODING 119
SWIDTH 596 0
DWIDTH 29 0
BBX 24 24 0 0
BITMAP
70000E
F8001F
F8001F
F8001F
70000E
701C0E
F83E1F
F83E1F
F83E1F
701C0E
701C0E
F83E1F
F83E1F
701C0E
701C0E
F83E1F
F83E1F
F83E1F
701C0E
0380C0
07C1E0
07C1E0
07C1E0
0380C0
ENDCHAR
STARTCHAR 0078
ENCODING 120
SWIDTH 596 0
DWIDTH 29 0
BBX 24 24 0 0
BITMAP
70000E
F8001F
F8001F
F8001F
70000E
0380C0
07C1E0
07C1E0
07C1E0
0380C0
001C00
003E00
003E00
001C00
0380C0
07C1E0
07C1E0
07C1E0
0380C0
70000E
F8001F
F8001F
F8001F
70000E
ENDCHAR
STARTCHAR 0079
ENCODING 121
SWIDTH 493 0
DWIDTH 24 0
BBX 19 34 0 -10
BITMAP
7000C0
F801E0
F801E0
F801E0
7000C0
7000C0
F801E0
F801E0
F801E0
7000C0
7000C0
F801E0
F801E0
F801E0
7000C0
7000C0
F801E0
F801E0
7001C0
039CC0
07FFE0
07FFE0
07FFE0
039CC0
0000C0
0001E0
0001E0
0001E0
0000C0
039C00
07FE00
07FE00
07FE00
039C00
ENDCHAR
STARTCHAR 007A
ENCODING 122
SWIDTH 493 0
DWIDTH 24 0
BBX 19 24 0 0
BITMAP
739CC0
FFFFE0
FFFFE0
FFFFE0
739CC0
001C00
003E00
003E00
003E00
001C00
038000
07C000
07C000
038000
700000
F80000
F80000
F80000
700000
739CC0
FFFFE0
FFFFE0
FFFFE0
739CC0
ENDCHAR
ENDFONT
